:version 1.10
:name ASF
:units
  mass 1
  length 1
  angle deg
:documentation
  ASF file generated by Kaydara
:root
  axis xyz
  order  tx ty tz rx ry rz
  position 0 0 0
  orientation 0 0 0
:bonedata
  begin
    id 1
    name RightUpLegDummy
    direction -1 2.30186e-007 8.31532e-007
    length 4.04083
    axis 0 0 0 xyz
  end
  begin
    id 2
    name RightUpLeg
    direction -0.000919234 -0.999985 0.00544864
    length 17.4221
    axis -3.80308 -0.00076134 -0.0523649 xyz
    dof rx ry rz
  end
  begin
    id 3
    name RightLeg
    direction -0.000919271 -0.999984 -0.00555045
    length 17.1239
    axis 4.00314 0.0181274 -0.183583 xyz
    dof rx ry rz
  end
  begin
    id 4
    name RightFoot
    direction -2.57843e-005 -4.04509e-007 1
    length 6.72091
    axis 8.18909e-005 -0.122003 -0.403008 xyz
    dof rx ry rz
  end
  begin
    id 5
    name RightToes
    direction 0.00116825 -0.014069 0.9999
    length 3.85082
    axis 0.000514414 0.540638 -0.356797 xyz
    dof rx ry rz
  end
  begin
    id 6
    name SpineDummy
    direction 0.0168869 0.966876 -0.254689
    length 6.99894
    axis 0 0 0 xyz
  end
  begin
    id 7
    name Spine
    direction -0.0132008 0.999903 0.00446247
    length 11.1999
    axis -0.00148109 0.00725429 0.756411 xyz
    dof rx ry rz
  end
  begin
    id 8
    name Spine1
    direction 0 0 0
    length 0
    axis -0.000934958 0.0245693 1.46543 xyz
    dof rx ry rz
  end
  begin
    id 9
    name HEadDummy
    direction -0.0255732 0.999672 0.00128215
    length 3.43865
    axis -0.000934958 0.0245693 1.46543 xyz
  end
  begin
    id 10
    name HEad
    direction -0.0472656 0.980052 0.19304
    length 5.12695
    axis -0.000934954 0.0245693 1.46543 xyz
    dof rx ry rz
  end
  begin
    id 11
    name LeftShoulder1Dummy
    direction 0.953098 0.301717 -0.023914
    length 3.68488
    axis -0.000934958 0.0245693 1.46543 xyz
  end
  begin
    id 12
    name LeftShoulder1
    direction 0.962466 0.271167 0.0112566
    length 3.13809
    axis -0.000934958 0.0245693 1.46543 xyz
    dof rx ry rz
  end
  begin
    id 13
    name LeftArm
    direction 0.999943 0.00455037 -0.00961766
    length 11.3419
    axis -23.1648 0.685459 1.22814 xyz
    dof rx ry rz
  end
  begin
    id 14
    name LeftForeArm
    direction 0.999332 0.0131969 0.0340885
    length 8.70632
    axis -9.90633 0.618216 0.0826942 xyz
    dof rx ry rz
  end
  begin
    id 15
    name LeftHand
    direction 0.994373 -0.0366703 0.0993905
    length 5.32135
    axis 0.00675269 0.680415 0.445699 xyz
    dof rx ry rz
  end
  begin
    id 16
    name RightShoulderDummy
    direction -0.967298 0.252589 -0.0230903
    length 3.68488
    axis -0.000934958 0.0245693 1.46543 xyz
  end
  begin
    id 17
    name RightShoulder
    direction -0.975062 0.221602 0.0120823
    length 3.13809
    axis 0.216257 0.0246515 1.45863 xyz
    dof rx ry rz
  end
  begin
    id 18
    name RightArm
    direction -0.99886 -0.00851186 -0.0469687
    length 10.3947
    axis -23.196 0.23503 -0.532632 xyz
    dof rx ry rz
  end
  begin
    id 19
    name RightForeArm
    direction -0.99909 0.00114866 0.0426317
    length 8.68355
    axis -9.91764 -0.134943 0.610517 xyz
    dof rx ry rz
  end
  begin
    id 20
    name RightHand
    direction -0.992888 -0.0489538 0.10852
    length 5.28593
    axis -0.00275396 -0.197403 0.246414 xyz
    dof rx ry rz
  end
  begin
    id 21
    name LeftUpLegDummy
    direction 1 -2.30186e-007 -8.31532e-007
    length 4.04083
    axis 0 0 0 xyz
  end
  begin
    id 22
    name LeftUpLeg
    direction -0.000920097 -1 2.79241e-006
    length 17.4221
    axis -3.48782 0.00143434 -0.0532288 xyz
    dof rx ry rz
  end
  begin
    id 23
    name LeftLeg
    direction -0.000920097 -1 2.7912e-006
    length 17.1239
    axis 3.68162 -0.00806512 -0.0529896 xyz
    dof rx ry rz
  end
  begin
    id 24
    name LeftFoot
    direction -2.57845e-005 -3.987e-007 1
    length 6.72091
    axis 3.02372e-005 -0.00147829 -0.214229 xyz
    dof rx ry rz
  end
  begin
    id 25
    name LeftToes
    direction 0.00813577 -0.00488255 0.999955
    length 3.85048
    axis 3.89895e-005 -0.0014783 -0.214229 xyz
    dof rx ry rz
  end
:hierarchy
  begin
    root RightUpLegDummy SpineDummy LeftUpLegDummy
    RightUpLegDummy RightUpLeg
    RightUpLeg RightLeg
    RightLeg RightFoot
    RightFoot RightToes
    SpineDummy Spine
    Spine Spine1
    Spine1 HEadDummy LeftShoulder1Dummy RightShoulderDummy
    HEadDummy HEad
    LeftShoulder1Dummy LeftShoulder1
    LeftShoulder1 LeftArm
    LeftArm LeftForeArm
    LeftForeArm LeftHand
    RightShoulderDummy RightShoulder
    RightShoulder RightArm
    RightArm RightForeArm
    RightForeArm RightHand
    LeftUpLegDummy LeftUpLeg
    LeftUpLeg LeftLeg
    LeftLeg LeftFoot
    LeftFoot LeftToes
  end

:SAMPLES-PER-SECOND 30
:FULLY-SPECIFIED
:DEGREES
45
root  -43.6808 34.6592 8.22602 -164.484 67.1163 -173.591
RightUpLeg  -8.92569 -23.6635 7.71155
RightLeg  4.15939 -6.43128 -0.0513939
RightFoot  2.32883 0.00496357 -0.0597693
RightToes  -17.4389 -0.0708067 -0.157995
Spine  -0.953993 1.20607 1.13784
Spine1  -1.88181 2.60146 2.94597
HEad  -72.2365 -4.26486 10.0027
LeftShoulder1  -1.94126e-019 -3.10601e-018 -2.51263e-017
LeftArm  -26.7747 25.2595 -82.1865
LeftForeArm  34.6722 -8.60738 -1.50129
LeftHand  -0.468833 -1.09268 8.5398
RightShoulder  -4.96962e-017 0 -2.36833e-017
RightArm  -21.0761 -12.1384 77.361
RightForeArm  51.7667 24.2243 2.54756
RightHand  -0.370355 -0.950383 -9.63121
LeftUpLeg  -19.0754 7.80068 8.89964
LeftLeg  23.7812 24.723 8.69818
LeftFoot  6.5498 -0.184214 3.38015
LeftToes  -19.762 1.49739e-006 1.00523e-007
46
root  -43.5845 34.6533 8.18416 -164.062 68.1303 -172.965
RightUpLeg  -8.36391 -23.5503 7.62193
RightLeg  3.72767 -5.54392 -0.002654
RightFoot  2.52857 0.00327299 -0.0467886
RightToes  -17.717 -0.0711774 -0.158217
Spine  -0.996212 1.29882 1.25442
Spine1  -1.94106 2.80778 3.17439
HEad  -72.1832 -3.45853 9.74251
LeftShoulder1  -1.94126e-019 -3.10601e-018 -2.51263e-017
LeftArm  -27.1952 26.7582 -81.9999
LeftForeArm  34.161 -8.46548 -1.47631
LeftHand  -0.469011 -1.11644 8.51372
RightShoulder  -4.96962e-017 0 -2.36833e-017
RightArm  -20.6598 -11.7445 77.6173
RightForeArm  52.0636 24.8354 2.65779
RightHand  -0.372631 -0.880941 -9.62147
LeftUpLeg  -19.4068 9.92006 8.41873
LeftLeg  25.735 28.3965 10.9015
LeftFoot  9.24816 -0.437568 5.56765
LeftToes  -27.5658 1.49739e-006 1.00523e-007
47
root  -43.5209 34.6669 8.12362 -164.433 68.9291 -173.151
RightUpLeg  -7.90344 -23.1285 7.2141
RightLeg  3.50851 -5.2884 0.0176454
RightFoot  2.66815 0.00268496 -0.0483083
RightToes  -17.8733 -0.0718528 -0.159506
Spine  -0.993019 1.37769 1.28365
Spine1  -1.91805 2.98011 3.22984
HEad  -72.2424 -2.99115 9.68979
LeftShoulder1  -1.94126e-019 -3.10601e-018 -2.51263e-017
LeftArm  -27.2231 27.8767 -81.767
LeftForeArm  34.1074 -8.71656 -1.5215
LeftHand  -0.461509 -1.21997 8.25669
RightShoulder  -4.96962e-017 0 -2.36833e-017
RightArm  -20.6996 -11.6445 77.8442
RightForeArm  52.1353 24.8874 2.66575
RightHand  -0.373686 -0.879811 -9.6699
LeftUpLeg  -19.9857 11.6524 8.07638
LeftLeg  27.7016 27.8081 11.7407
LeftFoot  10.2338 -0.530988 6.08621
LeftToes  -28.909 1.49739e-006 1.00523e-007
48
root  -43.4779 34.6815 8.04555 -165.13 69.3421 -173.655
RightUpLeg  -7.45138 -23.1505 6.73647
RightLeg  3.29811 -4.94771 0.0346427
RightFoot  2.80908 0.00218451 -0.0497374
RightToes  -18.2303 -0.072795 -0.162359
Spine  -0.956433 1.41203 1.26878
Spine1  -1.84326 3.04883 3.19765
HEad  -72.2614 -2.89054 9.81621
LeftShoulder1  -1.94126e-019 -3.10601e-018 -2.51263e-017
LeftArm  -27.0577 28.3703 -81.4522
LeftForeArm  34.2503 -8.96921 -1.56655
LeftHand  -0.46157 -1.3156 8.14752
RightShoulder  -4.96962e-017 0 -2.36833e-017
RightArm  -21.003 -11.9366 77.9797
RightForeArm  52.0049 24.4514 2.58373
RightHand  -0.373884 -0.996137 -9.72968
LeftUpLeg  -20.8166 12.5932 7.9665
LeftLeg  30.0376 26.0964 12.2906
LeftFoot  11.5411 -0.639298 6.48135
LeftToes  -31.6015 1.49739e-006 1.00523e-007
49
root  -43.4494 34.692 7.94408 -165.887 69.287 -174.213
RightUpLeg  -6.99717 -23.5391 6.27492
RightLeg  3.10056 -4.67459 0.0488183
RightFoot  2.89248 0.00179136 -0.0512705
RightToes  -18.6322 -0.073966 -0.165915
Spine  -0.898349 1.40852 1.25163
Spine1  -1.737 3.02839 3.16274
HEad  -72.4531 -3.25857 10.106
LeftShoulder1  -1.94126e-019 -3.10601e-018 -2.51263e-017
LeftArm  -26.8602 28.2403 -81.1332
LeftForeArm  34.3177 -9.18213 -1.60447
LeftHand  -0.464449 -1.32762 8.17664
RightShoulder  -4.96962e-017 0 -2.36833e-017
RightArm  -21.46 -12.5859 77.9018
RightForeArm  51.8336 23.4407 2.38994
RightHand  -0.375198 -0.934619 -9.72549
LeftUpLeg  -21.8056 12.5303 8.01349
LeftLeg  32.4125 24.1343 12.6289
LeftFoot  12.7067 -0.72368 6.65425
LeftToes  -33.5696 1.49739e-006 1.00523e-007
50
root  -43.4275 34.6999 7.81489 -166.545 68.9239 -174.677
RightUpLeg  -6.57792 -24.0424 5.84023
RightLeg  2.9853 -4.57142 0.0569168
RightFoot  2.96219 0.00143562 -0.0518228
RightToes  -19.1205 -0.0766103 -0.169713
Spine  -0.845639 1.37968 1.25248
Spine1  -1.64525 2.95585 3.16197
HEad  -72.5688 -3.83554 10.4087
LeftShoulder1  -1.94126e-019 -3.10601e-018 -2.51263e-017
LeftArm  -26.8036 27.6374 -80.9394
LeftForeArm  34.3471 -9.36484 -1.63729
LeftHand  -0.469503 -1.27608 8.17997
RightShoulder  -4.96962e-017 0 -2.36833e-017
RightArm  -21.8041 -13.4098 77.5813
RightForeArm  51.8316 21.6109 2.03372
RightHand  -0.377548 -1.00048 -9.65391
LeftUpLeg  -22.6872 11.9347 8.14576
LeftLeg  34.365 21.8425 12.4442
LeftFoot  12.7396 -0.662907 6.09456
LeftToes  -32.1754 1.49739e-006 1.00523e-007
51
root  -43.4056 34.6976 7.656 -166.987 68.3994 -175.005
RightUpLeg  -6.37205 -24.4387 5.45396
RightLeg  3.17403 -4.74948 0.0435231
RightFoot  2.92077 0.00104746 -0.0503094
RightToes  -19.6302 -0.0798076 -0.173842
Spine  -0.848401 1.35218 1.29503
Spine1  -1.66509 2.91212 3.22022
HEad  -72.4661 -4.40125 10.651
LeftShoulder1  -1.94126e-019 -3.10601e-018 -2.51263e-017
LeftArm  -26.797 26.8715 -80.957
LeftForeArm  34.4795 -9.67236 -1.69107
LeftHand  -0.468687 -1.34767 8.23401
RightShoulder  -4.96962e-017 0 -2.36833e-017
RightArm  -22.1657 -14.307 77.0364
RightForeArm  52.178 18.7296 1.47599
RightHand  -0.374106 -1.13361 -9.76296
LeftUpLeg  -23.1741 10.8091 8.34767
LeftLeg  34.8431 18.0662 10.616
LeftFoot  10.8016 -0.389868 4.28357
LeftToes  -29.2362 1.49739e-006 1.00523e-007
52
root  -43.3789 34.6769 7.45088 -167.243 67.8368 -175.214
RightUpLeg  -6.45984 -24.7048 5.05354
RightLeg  3.89967 -5.04804 -0.0175011
RightFoot  2.65833 0.000442225 -0.0440048
RightToes  -20.2405 -0.0832411 -0.178753
Spine  -0.910588 1.33101 1.38772
Spine1  -1.81135 2.89488 3.33917
HEad  -71.9818 -4.94276 10.7655
LeftShoulder1  -1.94126e-019 -3.10601e-018 -2.51263e-017
LeftArm  -26.5352 26.2254 -81.221
LeftForeArm  34.4578 -10.5126 -1.83451
LeftHand  -0.45996 -1.3998 8.02553
RightShoulder  -4.96962e-017 0 -2.36833e-017
RightArm  -23.1709 -15.6368 76.3235
RightForeArm  53.0976 16.6826 1.11721
RightHand  -0.364541 -1.29188 -10.0197
LeftUpLeg  -23.1318 9.02014 8.47555
LeftLeg  33.6399 13.6894 7.7624
LeftFoot  6.47934 -0.103317 1.9867
LeftToes  -27.9512 1.49739e-006 1.00523e-007
53
root  -43.3368 34.6367 7.20539 -167.212 67.2813 -175.184
RightUpLeg  -6.64141 -24.965 4.67621
RightLeg  4.81331 -5.27854 -0.102263
RightFoot  2.29748 -0.000841489 -0.0262288
RightToes  -20.9239 -0.0866684 -0.184208
Spine  -1.04121 1.25156 1.51041
Spine1  -2.08883 2.74209 3.52795
HEad  -71.3518 -5.29446 10.8283
LeftShoulder1  -1.94126e-019 -3.10601e-018 -2.51263e-017
LeftArm  -25.6264 26.1656 -81.6668
LeftForeArm  34.1605 -13.0325 -2.25766
LeftHand  -0.448995 -1.44247 7.79221
RightShoulder  -4.96962e-017 0 -2.36833e-017
RightArm  -25.8492 -17.0957 75.4304
RightForeArm  55.1799 14.5691 1.19556
RightHand  -0.35284 -1.43766 -10.2468
LeftUpLeg  -22.663 6.5147 8.47739
LeftLeg  31.3098 11.9923 6.20209
LeftFoot  3.39853 -0.0237 0.960427
LeftToes  -28.2844 1.49739e-006 1.00523e-007
54
root  -43.2815 34.5793 6.93486 -166.782 66.8605 -174.686
RightUpLeg  -6.83227 -25.0315 4.44283
RightLeg  5.85765 -5.68207 -0.213479
RightFoot  1.869 -0.00215888 -0.00610965
RightToes  -21.5044 -0.090003 -0.188807
Spine  -1.18193 1.12004 1.67574
Spine1  -2.3815 2.46975 3.81426
HEad  -70.8001 -5.48919 10.7766
LeftShoulder1  -1.94126e-019 -3.10601e-018 -2.51263e-017
LeftArm  -24.0205 26.3702 -82.1578
LeftForeArm  33.4765 -16.0477 -2.72344
LeftHand  -0.435198 -1.56398 7.43483
RightShoulder  -4.96962e-017 0 -2.36833e-017
RightArm  -29.9271 -18.5191 74.4468
RightForeArm  58.289 12.3327 1.44503
RightHand  -0.33072 -1.8211 -10.5792
LeftUpLeg  -21.7016 3.81377 8.49206
LeftLeg  27.9437 12.5196 5.57619
LeftFoot  1.95786 -0.00748511 0.599615
LeftToes  -29.5826 1.49739e-006 1.00523e-007
55
root  -43.241 34.5382 6.61593 -166.984 66.653 -174.935
RightUpLeg  -7.20079 -25.0282 3.80634
RightLeg  7.16272 -5.90597 -0.356438
RightFoot  1.49849 -0.00357053 0.0173053
RightToes  -22.6367 -0.09664 -0.197677
Spine  -1.37553 0.946635 1.77758
Spine1  -2.78198 2.0942 3.99372
HEad  -70.2531 -5.52875 10.6466
LeftShoulder1  -1.94126e-019 -3.10601e-018 -2.51263e-017
LeftArm  -21.7784 26.7029 -82.7066
LeftForeArm  32.4613 -18.3933 -2.98209
LeftHand  -0.428529 -1.73566 7.16
RightShoulder  -4.96962e-017 0 -2.36833e-017
RightArm  -34.5718 -19.9961 73.3248
RightForeArm  61.5139 10.2691 1.53751
RightHand  -0.3314 -1.89622 -10.8212
LeftUpLeg  -20.5633 1.25068 7.97558
LeftLeg  24.0284 13.0329 4.77693
LeftFoot  2.55957 -0.0149484 0.734913
LeftToes  -27.8 1.49739e-006 1.00523e-007
56
root  -43.2192 34.4995 6.27127 -167.076 66.4161 -175.175
RightUpLeg  -7.68199 -24.7472 3.18551
RightLeg  8.4614 -6.43824 -0.53485
RightFoot  1.14022 -0.00442172 0.0347467
RightToes  -23.3626 -0.100987 -0.203294
Spine  -1.55178 0.642723 1.83371
Spine1  -3.15382 1.43929 4.08813
HEad  -70.0507 -5.36267 10.9221
LeftShoulder1  -1.94126e-019 -3.10601e-018 -2.51263e-017
LeftArm  -20.2141 26.8492 -83.2653
LeftForeArm  32.0031 -20.3602 -3.165
LeftHand  -0.43226 -1.75377 7.20392
RightShoulder  -4.96962e-017 0 -2.36833e-017
RightArm  -37.5543 -21.3885 72.2937
RightForeArm  63.1489 8.88746 1.4619
RightHand  -0.30049 -2.30324 -11.0267
LeftUpLeg  -19.9835 -1.70788 7.52985
LeftLeg  22.8003 14.1011 4.82416
LeftFoot  3.03945 -0.0204652 0.89067
LeftToes  -23.0976 1.49739e-006 1.00523e-007
57
root  -43.2016 34.4838 5.92257 -167.172 66.2428 -175.376
RightUpLeg  -7.92796 -24.243 2.55737
RightLeg  9.35234 -7.1446 -0.705024
RightFoot  1.04229 -0.00321265 0.0248701
RightToes  -24.007 -0.105095 -0.208233
Spine  -1.61804 0.287355 1.82672
Spine1  -3.3008 0.668404 4.07845
HEad  -70.225 -5.19077 11.6752
LeftShoulder1  -1.94126e-019 -3.10601e-018 -2.51263e-017
LeftArm  -18.5766 26.6415 -83.5118
LeftForeArm  31.8122 -22.121 -3.37573
LeftHand  -0.424513 -1.96426 6.89098
RightShoulder  -4.96962e-017 0 -2.36833e-017
RightArm  -41.3914 -22.3633 71.654
RightForeArm  64.7897 7.78575 1.31558
RightHand  -0.279293 -2.61746 -11.3421
LeftUpLeg  -20.1623 -3.62161 7.12342
LeftLeg  23.656 15.7706 5.63822
LeftFoot  2.68485 -0.0166496 0.872046
LeftToes  -23.575 1.49739e-006 1.00523e-007
